<svg width="813" height="480" viewBox="0 0 813 480" fill="none" xmlns="http://www.w3.org/2000/svg">
<path d="M812.027 478.843L698.209 478.843C690.621 478.843 683.382 473.822 678.302 465.024L620.833 365.544C590.588 313.188 537.388 315.803 509.316 371.015L474.069 440.338C461.711 464.659 442.885 478.833 422.978 478.833L387.576 478.833C367.67 478.833 348.856 464.648 336.486 440.338L301.238 371.015C273.166 315.793 219.966 313.188 189.721 365.544L132.252 465.024C127.173 473.822 119.933 478.843 112.346 478.843L0.10862 478.843" stroke="#E36527" stroke-miterlimit="10"/>
<path d="M812.027 459.627L698.209 459.627C690.621 459.627 683.382 454.605 678.302 445.808L620.833 346.327C590.588 293.971 537.388 296.586 509.316 351.798L474.069 421.121C461.711 445.442 442.885 459.616 422.978 459.616L387.576 459.616C367.67 459.616 348.856 445.431 336.486 421.121L301.238 351.798C273.166 296.576 219.966 293.971 189.721 346.327L132.252 445.808C127.173 454.605 119.933 459.626 112.346 459.626L0.10862 459.626" stroke="#F4B520" stroke-miterlimit="10"/>
<path d="M812.027 440.397L698.209 440.397C690.621 440.397 683.382 435.376 678.302 426.579L620.833 327.098C590.588 274.743 537.388 277.358 509.316 332.569L474.069 401.892C461.711 426.213 442.885 440.387 422.978 440.387L387.576 440.387C367.67 440.387 348.856 426.203 336.486 401.892L301.238 332.569C273.166 277.347 219.966 274.743 189.721 327.098L132.252 426.579C127.173 435.376 119.933 440.397 112.346 440.397L0.10862 440.397" stroke="#4994EF" stroke-miterlimit="10"/>
<path d="M812.027 421.185L698.209 421.185C690.621 421.185 683.382 416.164 678.302 407.367L620.833 307.886C590.588 255.53 537.388 258.145 509.316 313.356L474.069 382.679C461.711 407 442.885 421.174 422.978 421.174L387.576 421.174C367.67 421.174 348.856 406.99 336.486 382.679L301.238 313.356C273.166 258.135 219.966 255.53 189.721 307.886L132.252 407.367C127.173 416.164 119.933 421.185 112.346 421.185L0.10862 421.185" stroke="#1F97B5" stroke-miterlimit="10"/>
<path d="M812.027 401.969L698.209 401.969C690.621 401.969 683.382 396.947 678.302 388.15L620.833 288.669C590.588 236.313 537.388 238.929 509.316 294.14L474.069 363.463C461.711 387.784 442.885 401.958 422.978 401.958L387.576 401.958C367.67 401.958 348.856 387.773 336.486 363.463L301.238 294.14C273.166 238.918 219.966 236.313 189.721 288.669L132.252 388.15C127.173 396.947 119.933 401.969 112.346 401.969L0.10862 401.969" stroke="#E36527" stroke-miterlimit="10"/>
<path d="M812.027 382.738L698.209 382.738C690.621 382.738 683.382 377.717 678.302 368.919L620.833 269.438C590.588 217.083 537.388 219.698 509.316 274.909L474.069 344.232C461.711 368.553 442.885 382.727 422.978 382.727L387.576 382.727C367.67 382.727 348.856 368.543 336.486 344.232L301.238 274.909C273.166 219.687 219.966 217.083 189.721 269.438L132.252 368.919C127.173 377.717 119.933 382.738 112.346 382.738L0.10862 382.738" stroke="#F4B520" stroke-miterlimit="10"/>
<path d="M812.027 363.521L698.209 363.521C690.621 363.521 683.382 358.5 678.302 349.703L620.833 250.222C590.588 197.866 537.388 200.481 509.316 255.692L474.069 325.015C461.711 349.336 442.885 363.51 422.978 363.51L387.576 363.51C367.67 363.51 348.856 349.326 336.486 325.015L301.238 255.692C273.166 200.471 219.966 197.866 189.721 250.221L132.252 349.703C127.173 358.5 119.933 363.521 112.346 363.521L0.10862 363.521" stroke="#4994EF" stroke-miterlimit="10"/>
<path d="M812.027 344.308L698.209 344.308C690.621 344.308 683.382 339.287 678.302 330.49L620.833 231.009C590.588 178.653 537.388 181.268 509.316 236.48L474.069 305.803C461.711 330.124 442.885 344.298 422.978 344.298L387.576 344.298C367.67 344.298 348.856 330.113 336.486 305.803L301.238 236.48C273.166 181.258 219.966 178.653 189.721 231.009L132.252 330.49C127.173 339.287 119.933 344.308 112.346 344.308L0.10862 344.308" stroke="#1F97B5" stroke-miterlimit="10"/>
<path d="M812.027 325.08L698.209 325.08C690.621 325.08 683.382 320.059 678.302 311.261L620.833 211.78C590.588 159.424 537.388 162.04 509.316 217.251L474.069 286.574C461.711 310.895 442.885 325.069 422.978 325.069L387.576 325.069C367.67 325.069 348.856 310.884 336.486 286.574L301.238 217.251C273.166 162.029 219.966 159.424 189.721 211.78L132.252 311.261C127.173 320.059 119.933 325.08 112.346 325.08L0.10862 325.08" stroke="#E36527" stroke-miterlimit="10"/>
<path d="M812.027 305.863L698.209 305.863C690.621 305.863 683.382 300.842 678.302 292.045L620.833 192.564C590.588 140.208 537.388 142.823 509.316 198.034L474.069 267.357C461.711 291.678 442.885 305.853 422.978 305.853L387.576 305.853C367.67 305.853 348.856 291.668 336.486 267.357L301.238 198.034C273.166 142.813 219.966 140.208 189.721 192.564L132.252 292.045C127.173 300.842 119.933 305.863 112.346 305.863L0.10862 305.863" stroke="#F4B520" stroke-miterlimit="10"/>
<path d="M812.027 286.65L698.209 286.65C690.621 286.65 683.382 281.629 678.302 272.831L620.833 173.35C590.588 120.995 537.388 123.61 509.316 178.822L474.069 248.144C461.711 272.465 442.885 286.64 422.978 286.64L387.576 286.64C367.67 286.64 348.856 272.455 336.486 248.144L301.238 178.822C273.166 123.6 219.966 120.995 189.721 173.35L132.252 272.831C127.173 281.629 119.933 286.65 112.346 286.65L0.10862 286.65" stroke="#4994EF" stroke-miterlimit="10"/>
<path d="M812.027 267.422L698.209 267.422C690.621 267.422 683.382 262.401 678.302 253.603L620.833 154.122C590.588 101.767 537.388 104.382 509.316 159.593L474.069 228.916C461.711 253.237 442.885 267.411 422.978 267.411L387.576 267.411C367.67 267.411 348.856 253.226 336.486 228.916L301.238 159.593C273.166 104.371 219.966 101.766 189.721 154.122L132.252 253.603C127.173 262.401 119.933 267.422 112.346 267.422L0.10862 267.422" stroke="#1F97B5" stroke-miterlimit="10"/>
<path d="M812.027 248.205L698.209 248.205C690.621 248.205 683.382 243.184 678.302 234.386L620.833 134.905C590.588 82.5495 537.388 85.1651 509.316 140.377L474.069 209.699C461.711 234.02 442.885 248.194 422.978 248.194L387.576 248.194C367.67 248.194 348.856 234.009 336.486 209.699L301.238 140.377C273.166 85.1546 219.966 82.5495 189.721 134.905L132.252 234.386C127.173 243.184 119.933 248.205 112.346 248.205L0.10862 248.205" stroke="#E36527" stroke-miterlimit="10"/>
<path d="M812.027 228.988L698.209 228.988C690.621 228.988 683.382 223.967 678.302 215.17L620.833 115.689C590.588 63.3332 537.388 65.9483 509.316 121.16L474.069 190.483C461.711 214.804 442.885 228.978 422.978 228.978L387.576 228.978C367.67 228.978 348.856 214.793 336.486 190.483L301.238 121.16C273.166 65.9378 219.966 63.3331 189.721 115.689L132.252 215.17C127.173 223.967 119.933 228.988 112.346 228.988L0.10862 228.988" stroke="#F4B520" stroke-miterlimit="10"/>
<path d="M812.027 209.761L698.209 209.761C690.621 209.761 683.382 204.74 678.302 195.943L620.833 96.4617C590.588 44.1061 537.388 46.7218 509.316 101.933L474.069 171.256C461.711 195.577 442.885 209.751 422.978 209.751L387.576 209.751C367.67 209.751 348.856 195.566 336.486 171.256L301.238 101.933C273.166 46.7113 219.966 44.1061 189.721 96.4617L132.252 195.943C127.173 204.74 119.933 209.761 112.346 209.761L0.10862 209.761" stroke="#4994EF" stroke-miterlimit="10"/>
<path d="M812.027 190.545L698.209 190.545C690.621 190.545 683.382 185.524 678.302 176.726L620.833 77.2454C590.588 24.8898 537.388 27.5049 509.316 82.7163L474.069 152.039C461.711 176.36 442.885 190.534 422.978 190.534L387.576 190.534C367.67 190.534 348.856 176.35 336.486 152.039L301.238 82.7163C273.166 27.4945 219.966 24.8898 189.721 77.2454L132.252 176.726C127.173 185.524 119.933 190.545 112.346 190.545L0.10862 190.545" stroke="#1F97B5" stroke-miterlimit="10"/>
<path d="M812.027 171.328L698.209 171.328C690.621 171.328 683.382 166.307 678.302 157.51L620.833 58.0286C590.588 5.673 537.388 8.28815 509.316 63.4995L474.069 132.822C461.711 157.143 442.885 171.317 422.978 171.317L387.576 171.317C367.67 171.317 348.856 157.133 336.486 132.822L301.238 63.4995C273.166 8.27767 219.966 5.67299 189.721 58.0286L132.252 157.51C127.173 166.307 119.933 171.328 112.346 171.328L0.10862 171.328" stroke="#E36527" stroke-miterlimit="10"/>
<path d="M812.027 152.104L698.209 152.104C690.621 152.104 683.382 147.082 678.302 138.285L620.833 38.804C590.588 -13.5516 537.388 -10.9365 509.316 44.2749L474.069 113.598C461.711 137.919 442.885 152.093 422.978 152.093L387.576 152.093C367.67 152.093 348.856 137.908 336.486 113.598L301.238 44.2749C273.166 -10.9469 219.966 -13.5516 189.721 38.804L132.252 138.285C127.173 147.082 119.933 152.104 112.346 152.104L0.10862 152.104" stroke="#F4B520" stroke-miterlimit="10"/>
</svg>
