<svg width="461" height="461" viewBox="0 0 461 461" fill="none" xmlns="http://www.w3.org/2000/svg">
<path d="M186.559 1.44793C164.885 7.55825 144.328 17.1867 125.72 29.9758C122.93 31.8929 120.191 33.8763 117.505 35.9239C98.7032 50.257 82.4851 67.7333 69.581 87.6036C54.8337 110.313 44.7035 135.704 39.7692 162.328C35.3799 186.01 35.1781 210.254 39.1489 233.963C39.9671 238.848 44.7495 241.938 49.5944 240.908L174.022 214.46C178.533 213.502 181.516 209.269 181.547 204.658C181.731 177.828 197.621 153.359 222.056 142.279C226.256 140.374 228.909 135.928 227.95 131.417L201.503 6.9903C200.473 2.14553 195.704 -0.966593 190.909 0.272878C189.454 0.648855 188.004 1.04057 186.559 1.44793Z" fill="#F4B520"/>
<path d="M226.671 39.1548C250.379 35.1839 274.624 35.3857 298.305 39.7751C324.929 44.7094 350.321 54.8395 373.028 69.5868C395.739 84.3344 415.319 103.41 430.658 125.725C444.299 145.574 454.346 167.641 460.361 190.915C461.601 195.71 458.486 200.479 453.644 201.508L329.213 227.957C324.702 228.916 320.257 226.262 318.352 222.062C307.271 197.628 282.804 181.737 255.975 181.551C251.364 181.52 247.132 178.537 246.173 174.027L219.725 49.6003C218.695 44.7554 221.786 39.973 226.671 39.1548Z" fill="#E36527"/>
<path d="M232.673 329.224C231.714 324.713 234.367 320.268 238.567 318.361C263.003 307.282 278.895 282.811 279.078 255.981C279.11 251.37 282.092 247.137 286.603 246.178L411.027 219.731C415.873 218.701 420.656 221.792 421.475 226.677C425.445 250.385 425.242 274.63 420.853 298.311C415.918 324.934 405.79 350.326 391.043 373.037C376.293 395.744 357.218 415.328 334.902 430.663C315.055 444.304 292.988 454.351 269.714 460.366C264.918 461.607 260.15 458.495 259.12 453.649L232.673 329.224Z" fill="#1F97B5"/>
<path d="M131.411 232.686C135.922 231.727 140.368 234.381 142.273 238.581C153.354 263.018 177.826 278.909 204.657 279.091C209.269 279.122 213.502 282.105 214.461 286.616L240.908 411.041C241.938 415.887 238.848 420.667 233.963 421.486C210.254 425.456 186.01 425.256 162.328 420.867C135.704 415.932 110.313 405.801 87.6037 391.054C64.8947 376.307 45.3126 357.232 29.9758 334.916C16.3341 315.067 6.2885 293.001 0.272876 269.726C-0.966589 264.931 2.14553 260.163 6.9903 259.133L131.411 232.686Z" fill="#4994EF"/>
</svg>
