<svg width="103" height="32" viewBox="0 0 103 32" fill="none" xmlns="http://www.w3.org/2000/svg">
<g clip-path="url(#clip0_15_21165)">
<path d="M92.2358 15.9896V4.86232H95.1512V6.35337C96.0414 5.12937 97.3099 4.63977 98.6674 4.63977C101.605 4.63977 102.629 6.53141 102.629 9.58028V15.9896H99.6466V9.95861C99.6466 8.33402 99.2238 7.4661 97.7105 7.4661C96.2194 7.4661 95.218 8.66784 95.218 10.3592V15.9896H92.2358Z" fill="#0E052E"/>
<path d="M83.5876 16.2121C80.5165 16.2121 78.5581 13.6306 78.5581 10.426C78.5581 7.2213 80.5165 4.63977 83.5876 4.63977C84.8784 4.63977 86.2582 5.15162 87.0593 6.21984V4.86232H89.9747V15.9896H87.0593V14.6543C86.2804 15.7225 84.8784 16.2121 83.5876 16.2121ZM84.3443 13.4526C85.8799 13.4526 86.9926 12.2063 86.9926 10.426C86.9926 8.6901 85.8799 7.39933 84.3443 7.39933C82.742 7.39933 81.5847 8.6901 81.5847 10.426C81.5847 12.1841 82.742 13.4526 84.3443 13.4526Z" fill="#0E052E"/>
<path d="M71.9349 16.2122C70.5996 16.2122 69.1976 15.7226 68.3742 14.6543V15.9896H65.5479V1.34613H68.53V6.1086C69.3311 5.15166 70.5996 4.6398 71.8904 4.6398C74.9615 4.6398 76.9644 7.22133 76.9644 10.426C76.9644 13.6306 75.006 16.2122 71.9349 16.2122ZM71.1783 13.4526C72.7806 13.4526 73.9378 12.1841 73.9378 10.426C73.9378 8.69013 72.7806 7.39937 71.1783 7.39937C69.6427 7.39937 68.53 8.69013 68.53 10.426C68.53 12.2063 69.6649 13.4526 71.1783 13.4526Z" fill="#0E052E"/>
<path d="M57.638 16.2121C54.3221 16.2121 51.696 13.6529 51.696 10.426C51.696 7.19904 54.3221 4.63977 57.638 4.63977C60.9762 4.63977 63.6022 7.19904 63.6022 10.426C63.6022 13.6529 60.9762 16.2121 57.638 16.2121ZM57.638 13.4526C59.3071 13.4526 60.5534 12.1841 60.5534 10.426C60.5534 8.6901 59.3071 7.39933 57.638 7.39933C55.9689 7.39933 54.7227 8.6901 54.7227 10.426C54.7227 12.1841 55.9689 13.4526 57.638 13.4526Z" fill="#0E052E"/>
<path d="M44.0444 15.9896V4.23921H39.1484V1.56866H52.0561V4.23921H47.1601V15.9896H44.0444Z" fill="#0E052E"/>
<path d="M12.6027 0.32945C11.2581 0.708518 9.98274 1.30584 8.82832 2.09924C8.65527 2.21818 8.48537 2.34122 8.31873 2.46825C7.1523 3.35744 6.14617 4.44162 5.34563 5.67432C4.43075 7.08313 3.8023 8.65834 3.49618 10.31C3.22388 11.7792 3.21136 13.2832 3.4577 14.7541C3.50846 15.0571 3.80515 15.2488 4.10572 15.185L11.8249 13.5442C12.1047 13.4847 12.2898 13.2221 12.2917 12.9361C12.3031 11.2716 13.2889 9.75364 14.8048 9.06621C15.0653 8.94806 15.2299 8.67223 15.1705 8.3924L13.5297 0.673284C13.4658 0.372727 13.17 0.179659 12.8725 0.256553C12.7822 0.279877 12.6923 0.304178 12.6027 0.32945Z" fill="#F4B520"/>
<path d="M15.0916 2.66882C16.5624 2.42248 18.0665 2.435 19.5356 2.7073C21.1873 3.01342 22.7625 3.64187 24.1712 4.55675C25.5801 5.47165 26.7949 6.65508 27.7464 8.03944C28.5927 9.27082 29.216 10.6398 29.5891 12.0836C29.6661 12.3811 29.4728 12.6769 29.1724 12.7408L21.453 14.3816C21.1732 14.4411 20.8974 14.2765 20.7793 14.0159C20.0918 12.5001 18.5739 11.5142 16.9096 11.5027C16.6235 11.5008 16.3609 11.3158 16.3014 11.0359L14.6607 3.31684C14.5968 3.01627 14.7885 2.71958 15.0916 2.66882Z" fill="#E36527"/>
<path d="M15.4636 20.6641C15.4041 20.3842 15.5687 20.1084 15.8293 19.9901C17.3452 19.3028 18.3311 17.7847 18.3425 16.1203C18.3444 15.8342 18.5295 15.5716 18.8093 15.5121L26.5282 13.8714C26.8288 13.8075 27.1256 13.9992 27.1764 14.3023C27.4227 15.7731 27.4101 17.2772 27.1378 18.7463C26.8316 20.3979 26.2033 21.9732 25.2885 23.3821C24.3734 24.7908 23.19 26.0057 21.8056 26.9571C20.5744 27.8033 19.2054 28.4266 17.7615 28.7998C17.464 28.8767 17.1682 28.6837 17.1043 28.3831L15.4636 20.6641Z" fill="#1F97B5"/>
<path d="M9.18146 14.6749C9.46131 14.6155 9.73712 14.7801 9.85527 15.0406C10.5427 16.5566 12.0609 17.5425 13.7255 17.5538C14.0116 17.5557 14.2742 17.7407 14.3336 18.0206L15.9744 25.7396C16.0383 26.0402 15.8465 26.3368 15.5435 26.3876C14.0727 26.6339 12.5686 26.6215 11.0995 26.3492C9.44777 26.043 7.87256 25.4145 6.46376 24.4997C5.05495 23.5848 3.84013 22.4014 2.88867 21.017C2.04237 19.7856 1.41918 18.4167 1.04598 16.9728C0.969088 16.6753 1.16216 16.3795 1.46271 16.3156L9.18146 14.6749Z" fill="#4994EF"/>
<path d="M77.4545 21.7883C77.5436 21.7883 77.4879 21.8885 77.5213 21.933C77.5102 22.022 77.5547 22.1221 77.5992 22.2C77.5769 22.3447 77.4768 22.3892 77.3878 22.4671C77.2097 22.4782 77.054 22.5339 76.8871 22.5784C76.6423 22.7119 76.3529 22.7898 76.0636 22.7787C75.919 22.8454 75.7855 22.9456 75.6074 22.9344L75.574 22.9678C75.3181 23.0123 75.0065 23.0346 74.7395 23.1125C74.606 23.157 74.4502 23.068 74.3612 23.1792C74.1943 23.1236 74.0941 23.335 73.9383 23.2794C73.7937 23.246 73.6156 23.4463 73.5377 23.246C73.6045 23.2349 73.6601 23.157 73.7269 23.1347C74.6616 22.6451 75.6074 22.2 76.5532 21.7438C76.8314 21.6771 77.2097 21.5547 77.4545 21.7883ZM77.9219 22.9789C78.1778 23.0012 78.3892 23.2126 78.4671 23.4352C78.4671 23.4797 78.4894 23.5687 78.456 23.6243C78.3892 23.7022 78.3225 23.7356 78.2557 23.8135C78.1333 23.8135 78.0443 23.9248 77.9108 23.8691C77.7884 24.036 77.5324 23.9359 77.4434 24.1362C77.41 24.1139 77.3655 24.1139 77.3321 24.1362C77.2543 24.1807 77.143 24.0917 77.054 24.125C76.9761 24.125 76.8648 24.1362 76.7758 24.1362C76.709 24.0583 76.8314 24.0472 76.8648 23.9915C77.0985 23.8246 77.2654 23.5576 77.4212 23.3461C77.4434 23.2905 77.4879 23.2015 77.4545 23.1347C77.4768 23.1459 77.4768 23.1125 77.4991 23.1125L77.4434 23.0346C77.5658 23.0012 77.4212 22.8565 77.5658 22.8677C77.6103 22.7564 77.6771 22.8343 77.755 22.8454L77.9219 22.9789ZM74.5837 24.2363C74.4279 24.0917 74.3723 23.8691 74.2276 23.7245C74.2388 23.6911 74.2165 23.6577 74.1831 23.6466C74.2054 23.6466 74.2276 23.6577 74.2388 23.6355C74.1609 23.5019 74.2721 23.5019 74.3612 23.4352C74.5503 23.4797 74.7617 23.5131 74.9175 23.6355C75.0956 23.8802 75.4405 24.1028 75.3404 24.47C75.2847 24.5145 75.3515 24.6147 75.2625 24.6369C75.1623 24.6703 75.0956 24.6592 75.0065 24.6369C74.8953 24.5479 74.7951 24.4923 74.7284 24.381C74.6727 24.3699 74.6393 24.2697 74.5837 24.2363ZM71.7463 28.5537C71.6572 28.6316 71.6684 28.4758 71.5793 28.4981C71.7796 28.4647 71.9354 28.3089 72.1246 28.2199C72.6031 27.8638 73.0704 27.4855 73.5266 27.1405H73.5489C73.9049 26.74 74.3389 26.4507 74.7395 26.1613C74.8508 26.0389 75.0177 25.9165 75.0622 25.7608C75.1401 25.6717 75.1846 25.5605 75.2402 25.4826C75.1289 25.4269 75.0177 25.5493 74.9175 25.4826C74.8841 25.5271 74.8619 25.4715 74.8285 25.4826C74.7729 25.5271 74.695 25.5382 74.6393 25.5271C74.5169 25.6161 74.3278 25.5271 74.1943 25.605C74.172 25.5827 74.1497 25.5827 74.1275 25.605C74.0385 25.5827 73.9161 25.5827 73.8271 25.605C73.7047 25.4492 73.3597 25.4937 73.382 25.2155H73.3708C73.5377 25.082 73.7158 24.9707 73.9383 24.9707C74.0941 24.9151 74.261 24.904 74.4168 24.8595C74.7951 24.7816 75.1289 24.7259 75.5184 24.6703C75.6408 24.6035 75.8522 24.6925 75.919 24.5368C75.919 24.4366 75.8633 24.3253 75.9079 24.2252C75.83 23.9248 75.83 23.6021 75.6853 23.335C75.7187 23.2571 75.6519 23.2349 75.6074 23.1904C75.6964 23.1792 75.7076 23.0568 75.8077 23.068C76.0525 22.9678 76.1304 23.2126 76.2751 23.3239C76.3084 23.5019 76.4976 23.5798 76.4753 23.7801C76.442 23.858 76.531 23.9359 76.5532 24.0138C76.5532 24.1473 76.6645 24.2475 76.62 24.3921L76.6645 24.4366C77.2654 24.3253 77.8329 24.1696 78.4894 24.2029C78.5895 24.1807 78.6897 24.1696 78.7898 24.1473C78.8566 24.1918 78.7564 24.2808 78.8121 24.3365C78.7453 24.4255 78.7453 24.559 78.6229 24.5924C78.5561 24.648 78.5005 24.7037 78.4449 24.7704C78.3113 24.7704 78.2335 24.9373 78.0999 24.9151C77.9553 25.0486 77.7327 25.0375 77.5547 25.1154C77.4768 25.2267 77.3321 25.1376 77.2543 25.2378C77.2097 25.2378 77.1652 25.2489 77.143 25.2823C77.5324 25.5939 78.0443 25.7051 78.456 26.0167C78.8455 26.2504 79.2905 26.3728 79.68 26.5731C80.0695 26.7845 80.5479 26.8735 80.8484 27.2518C80.7705 27.441 80.5479 27.4187 80.4144 27.5523C80.3365 27.5523 80.2364 27.5411 80.1807 27.5189C80.0472 27.5968 79.858 27.5634 79.7134 27.5523C79.502 27.53 79.3239 27.4299 79.1459 27.352C79.1348 27.3186 79.0903 27.2963 79.0457 27.3075C79.0124 27.2296 78.9345 27.2184 78.8566 27.2073C78.6118 27.0515 78.4115 26.829 78.1667 26.6954C78.0999 26.5731 77.9775 26.5842 77.9108 26.4952C77.8329 26.5285 77.844 26.4173 77.7772 26.4173C77.3878 26.1836 76.9761 25.872 76.6534 25.5605L76.5644 25.516C76.5421 25.5716 76.5421 25.6495 76.5644 25.7051C76.5532 25.7051 76.531 25.694 76.5199 25.7162C76.5977 25.7385 76.5644 25.8275 76.5644 25.9054C76.5755 26.0389 76.6534 26.1725 76.6089 26.3171C76.6423 26.395 76.6645 26.5285 76.6089 26.5842C76.709 26.6843 76.442 26.9402 76.7201 26.9069C76.8425 26.8512 76.9649 26.9514 77.0762 26.8735C77.2097 26.9069 77.3099 26.829 77.41 26.8512C77.6548 26.7845 77.8663 26.9514 78.1111 26.8957C78.3559 26.9402 78.4226 27.2407 78.6674 27.3075C78.8009 27.3965 78.8343 27.5077 78.9122 27.619C78.9122 27.6969 78.9567 27.7637 78.9456 27.8193C78.8788 27.8749 78.9567 27.9862 78.8677 28.0419C78.8788 28.1197 78.9456 28.1865 78.9011 28.2644L78.9122 28.2867C78.89 28.2867 78.9011 28.32 78.9011 28.3423L78.9122 28.3534L78.8677 28.4091C78.8677 28.4536 78.8677 28.5537 78.8677 28.5982C78.9011 28.6539 78.8343 28.7206 78.8121 28.7874C78.8566 28.8096 78.7898 28.8541 78.8232 28.8875C78.8455 28.9654 78.7453 29.0099 78.7564 29.0989C78.7008 29.1212 78.7453 29.188 78.6897 29.188C78.7008 29.2547 78.6229 29.3215 78.6007 29.3883C78.5895 29.4884 78.4783 29.544 78.456 29.6442C78.4115 29.6887 78.3447 29.6776 78.3225 29.7443C78.3002 29.8222 78.2446 29.9001 78.1667 29.9446C78.0665 30.0003 77.933 30.0448 77.8551 30.1338C77.7216 30.1783 77.6548 30.067 77.5658 30.0003L77.4768 29.8667C77.2988 29.9001 77.1096 29.9891 76.9204 29.978C76.7647 30.067 76.5421 30.0448 76.3641 30.0448C76.3418 30.1004 76.2862 30.0559 76.2639 30.0893L76.2528 30.0781C76.0414 30.1894 75.8077 30.0781 75.5407 30.1115C75.485 30.1672 75.4183 30.1894 75.4294 30.2784C75.3626 30.1894 75.2736 30.2562 75.1846 30.2228C75.0844 30.067 74.8953 29.9669 74.873 29.7777C74.784 29.6887 74.784 29.5552 74.7172 29.455C74.5948 29.0433 74.4724 28.6093 74.4502 28.1976C74.4057 28.1531 74.4279 28.0641 74.4391 28.0085C74.4279 27.8749 74.4168 27.7303 74.3945 27.5968C74.4391 27.5411 74.4391 27.4632 74.4502 27.3965C74.4502 27.352 74.4724 27.2852 74.4836 27.2296C74.5503 27.2073 74.5948 27.2296 74.6393 27.2184C74.6505 27.3186 74.7617 27.3075 74.8174 27.3631C74.8396 27.352 74.8841 27.3408 74.8953 27.3075L74.8841 27.2963C74.9843 27.2518 75.0733 27.2184 75.1735 27.1739C75.3737 27.1183 75.574 27.0738 75.7855 27.0515C75.83 27.0293 75.8967 27.0181 75.8856 26.9625C75.8411 26.7845 75.9746 26.6398 75.9524 26.4507C75.9857 26.1947 75.9857 25.9499 75.9524 25.7051C75.83 25.7051 75.83 25.8943 75.6853 25.8498C75.5963 26.0056 75.4405 26.1613 75.2847 26.2504C75.218 26.395 75.0065 26.3728 74.9509 26.5174C74.9287 26.5953 74.8063 26.5731 74.8174 26.6732C74.8063 26.7622 74.6727 26.7288 74.7061 26.829C74.4947 27.0181 74.3612 27.2296 74.1275 27.352C74.0273 27.3965 73.9495 27.5411 73.8271 27.5745C73.7825 27.6413 73.7047 27.7192 73.6379 27.7637C73.5823 27.7637 73.5711 27.8416 73.5155 27.8416C73.4042 28.0419 73.1705 28.0641 73.0259 28.2199C72.6476 28.4424 72.2247 28.6093 71.7463 28.5537ZM76.8314 27.3631C76.6979 27.4187 76.5199 27.4299 76.4086 27.5077C76.5421 27.619 76.7758 27.6635 76.7535 27.8972C76.9761 27.9751 77.2654 27.8861 77.4434 28.0752C77.5213 28.1309 77.5769 28.2088 77.6103 28.2978C77.6437 28.3312 77.6103 28.3757 77.6437 28.4424C77.4879 28.5426 77.2988 28.5426 77.143 28.5982C77.054 28.754 76.8759 28.7429 76.7647 28.843C76.7869 28.8653 76.7647 28.9209 76.7535 28.9543C76.7758 29.0433 76.7647 29.1212 76.7647 29.1991C76.7424 29.2436 76.7535 29.3104 76.7201 29.3549C76.7424 29.3771 76.7647 29.366 76.798 29.366C77.1096 29.2547 77.5769 29.4105 77.755 29.0099C77.8217 28.6539 78.0665 28.3757 78.0999 27.9973C78.0777 27.9195 78.0665 27.8416 78.0665 27.7525C77.8885 27.6079 77.666 27.4744 77.4657 27.3186L77.143 27.3075C77.0317 27.3186 76.9427 27.3853 76.8314 27.3631ZM75.5073 28.7206C75.4183 28.6427 75.307 28.5871 75.2625 28.4869C75.4516 28.2199 75.7632 28.0641 76.0636 27.9973C76.0525 27.8416 75.9857 27.6969 75.8856 27.5745C75.7298 27.6079 75.5407 27.5856 75.4071 27.6524C75.1957 27.8304 75.0288 27.5634 74.8396 27.5189C74.8396 27.5856 74.9064 27.6413 74.8841 27.708C74.9175 27.7971 74.8841 27.8861 74.873 27.9862C74.8953 28.0196 74.8841 28.0864 74.8841 28.1086C74.9398 28.1643 74.9175 28.2421 74.962 28.2978C74.9732 28.6427 75.1957 28.9098 75.2291 29.2547C75.2402 29.3215 75.3181 29.3994 75.3404 29.455C75.3626 29.5218 75.3849 29.5997 75.4739 29.5885C75.6519 29.5107 75.8522 29.6331 76.008 29.5107C76.008 29.4884 76.0191 29.4439 75.9857 29.4105C75.9746 29.3215 76.008 29.188 76.0191 29.0989C75.9746 29.0322 76.0303 28.9654 76.0303 28.8987C76.0191 28.8541 76.008 28.843 75.9635 28.8208C75.8967 28.8096 75.8188 28.8096 75.7632 28.7651C75.6631 28.7763 75.6074 28.6984 75.5073 28.7206Z" fill="#0E052E"/>
<path d="M69.7212 27.3186C69.6544 27.2852 69.5765 27.3074 69.5209 27.3519C69.4319 27.4298 69.4541 27.5411 69.3651 27.619C69.4208 27.7636 69.2872 27.8304 69.2872 27.9639C69.1426 28.0641 69.2205 28.2644 69.1092 28.3979C69.0647 28.5426 68.9757 28.665 68.9089 28.8096C68.9089 28.8319 68.8978 28.8875 68.8755 28.9098C68.831 28.9431 68.831 29.021 68.8199 29.0767C68.7642 29.1768 68.6752 29.2547 68.6418 29.3548L68.5973 29.3994L68.6085 29.4216C68.4972 29.4995 68.4082 29.633 68.2635 29.6887C68.1189 29.7443 67.952 29.6998 67.8184 29.7777C67.696 29.7332 67.5736 29.6775 67.4512 29.6553C67.4401 29.6775 67.4178 29.6664 67.4067 29.6664C67.3956 29.6442 67.3622 29.6219 67.34 29.5996C67.2732 29.6108 67.1953 29.633 67.1397 29.6664C67.0061 29.6887 66.8837 29.6998 66.7947 29.7888C66.7168 29.7666 66.6389 29.8444 66.5499 29.8222C66.3496 29.889 66.1048 29.8667 65.9268 29.9557C65.8712 29.9668 65.7599 29.9335 65.7042 29.9891C65.4817 29.9446 65.2925 30.0447 65.0811 29.9891L65.07 30.0002C65.0366 29.9335 64.9698 29.9668 64.9253 29.9446C64.8586 29.9668 64.7807 29.9001 64.7028 29.8667C64.5915 29.7777 64.458 29.6887 64.3022 29.6442C64.28 29.6108 64.2577 29.5774 64.2132 29.5663C64.2354 29.4884 64.1687 29.4439 64.2132 29.3548C64.2021 29.3215 64.2577 29.3103 64.28 29.2992C64.6249 29.2547 64.9921 29.277 65.3482 29.2102C65.9936 29.1434 66.5944 28.9431 67.2287 28.8096C67.4512 28.7985 67.6181 28.665 67.8296 28.6316C68.2524 28.0307 68.564 27.3853 68.742 26.6843C68.7531 26.5508 68.6641 26.4618 68.653 26.3394C68.5973 26.306 68.5751 26.2281 68.564 26.1724C68.4749 26.0389 68.4527 25.8609 68.2969 25.783C68.1856 25.8275 68.1411 25.7051 68.041 25.7607C67.9631 25.7719 67.9297 25.7162 67.8629 25.694C67.7628 25.783 67.6738 25.6606 67.5625 25.6828C67.4178 25.7051 67.2732 25.7385 67.1508 25.8275C66.8837 25.8498 66.6612 25.9833 66.4053 25.961C66.3608 26.0389 66.2606 25.9499 66.2272 26.0389C66.1048 26.0834 65.9824 25.9944 65.8823 26.1168C65.7599 26.0946 65.6486 26.217 65.4928 26.1724C65.4817 26.1947 65.4372 26.1613 65.4038 26.1724C65.1813 26.2058 64.9698 26.2837 64.7473 26.3394C64.7473 26.3282 64.7362 26.3171 64.725 26.3171L64.7028 26.3394C64.6694 26.3171 64.6026 26.3727 64.5581 26.3505C64.4135 26.3839 64.28 26.4395 64.1242 26.4618C63.8683 26.5508 63.6568 26.4618 63.4009 26.5285C63.2229 26.4618 63.0782 26.3839 62.9558 26.2503L62.9781 26.217C62.9669 26.217 62.9669 26.1947 62.9669 26.1724C62.9781 26.1724 62.9892 26.1613 63.0003 26.1613C62.9447 26.1057 63.0448 26.0723 63.0115 26.0167C63.5456 25.7274 64.2021 25.7162 64.8029 25.5604C65.1034 25.5382 65.4149 25.4937 65.7042 25.4269C65.7933 25.1932 65.7933 24.9596 65.7599 24.7036C65.7933 24.6814 65.771 24.648 65.7599 24.6258C65.8155 24.4588 65.7488 24.2919 65.7599 24.1362C65.771 24.0805 65.7488 23.9804 65.7821 23.9247C65.7933 23.335 65.593 22.8009 65.5485 22.2334C65.504 22.1332 65.3927 22.0442 65.4372 21.933C65.4149 21.8996 65.4149 21.8439 65.4372 21.8106C65.5485 21.7549 65.6375 21.5991 65.7599 21.7215C66.0047 21.8884 66.1938 22.0554 66.4053 22.2445C66.4943 22.4003 66.6946 22.4893 66.6612 22.7007C66.7057 22.8788 66.6723 23.0791 66.7502 23.246C66.728 23.2905 66.7502 23.3461 66.7057 23.3906C66.7836 23.4796 66.728 23.5798 66.7502 23.6688C66.7502 23.7467 66.7391 23.8023 66.7613 23.8802L66.728 23.9136C66.7613 24.0138 66.7613 24.1584 66.7613 24.2474C66.728 24.3921 66.7168 24.5367 66.6612 24.6703C66.6056 24.7148 66.6834 24.737 66.7057 24.7704C67.1842 24.4255 67.6738 24.0694 68.041 23.602C68.0632 23.5019 68.0632 23.4351 68.0521 23.335C68.2301 23.335 68.13 23.0679 68.3192 23.1013C68.5528 23.2015 68.7976 23.335 68.9534 23.5353C68.9979 23.7467 69.1982 24.036 68.9534 24.214C68.8866 24.214 68.8421 24.3253 68.7754 24.2697C68.6752 24.3364 68.5862 24.4143 68.4638 24.4032C68.3637 24.4477 68.2858 24.5479 68.1745 24.5479C68.1522 24.6258 68.0744 24.5701 68.0299 24.6146C67.8296 24.8149 67.5625 24.8706 67.3288 24.9818C67.084 25.0152 66.906 25.1932 66.6723 25.2378C66.6501 25.2489 66.6389 25.2823 66.6389 25.3045C66.6834 25.4158 66.7725 25.2934 66.8392 25.3602C66.8504 25.3268 66.8726 25.3602 66.8949 25.3602C67.1953 25.3268 67.4846 25.3602 67.7628 25.2711C67.9631 25.2155 68.0966 25.3713 68.2969 25.2934C68.3637 25.3713 68.4972 25.3156 68.5751 25.3602C69.0313 25.5159 69.3095 25.9276 69.621 26.2503C69.6322 26.3394 69.7212 26.3282 69.7546 26.4172C69.788 26.4729 69.7991 26.5508 69.8436 26.6064C69.8213 26.6732 69.877 26.7622 69.8547 26.829C69.8881 26.9291 69.8992 27.0181 69.877 27.1071C69.8992 27.1294 69.8881 27.1628 69.8881 27.185C69.8213 27.2407 69.7991 27.2963 69.7212 27.3186ZM64.892 24.8817C64.8697 24.9596 64.9365 25.1154 64.8363 25.1821C64.8252 25.2823 64.8474 25.3935 64.7584 25.4603C64.6583 25.5382 64.547 25.4492 64.4469 25.438C64.3356 25.3935 64.3133 25.2378 64.2021 25.1821C64.1464 25.0375 64.024 24.8928 64.024 24.737C63.9684 24.648 64.024 24.5701 63.9795 24.4811C64.0129 24.2586 63.9795 23.9692 64.0463 23.7356C64.0908 23.6466 64.2021 23.6243 64.2911 23.6577C64.4024 23.8802 64.7139 23.9804 64.6917 24.2474C64.8029 24.3921 64.8697 24.5479 64.8586 24.737C64.8586 24.7704 64.8586 24.8038 64.892 24.826L64.8808 24.8372C64.892 24.8483 64.892 24.8706 64.892 24.8817ZM64.4469 27.9306C64.3801 27.8082 64.2021 27.7414 64.2466 27.5745C64.2243 27.4966 64.3133 27.4298 64.3578 27.3631C65.2592 27.1628 66.1605 26.8623 67.1508 26.9291C67.2621 26.9514 67.3066 26.9847 67.3622 27.0849C67.4512 27.1294 67.5736 27.1739 67.607 27.2963C67.607 27.5077 67.34 27.5522 67.2398 27.708C67.0506 27.7303 66.8726 27.7859 66.7057 27.8638C66.5833 27.8304 66.472 27.9194 66.3496 27.8972C66.2384 27.8638 66.1827 28.0084 66.0715 27.9306C66.0269 27.9973 65.9379 27.9306 65.9045 27.9973C65.7821 27.9973 65.6709 28.0084 65.5707 28.0752C65.5818 28.053 65.5707 28.0418 65.5596 28.0418C65.5262 28.0418 65.5151 28.0975 65.4706 28.0975C65.3816 28.0752 65.2814 28.142 65.1701 28.0975C64.9253 28.1976 64.6583 28.0752 64.4469 27.9306Z" fill="#0E052E"/>
</g>
<defs>
<clipPath id="clip0_15_21165">
<rect width="102" height="31.3418" fill="white" transform="translate(0.775879)"/>
</clipPath>
</defs>
</svg>
